# xmcd
#
# Track frame offsets:
#	150
#	17878
#	37073
#	52926
#	80779
#	96431
#	120600
#	139112
#	160650
#	177778
#	195361
#	208944
#	222139
#	234721
#
# Disc length: 3551 seconds
#
# Revision: 0
# Processed by: cddbd v1.5.2PL0 Copyright (c) Steve Scherf et al.
# Submitted via: VUPlayer 2.49
#
DISCID=c40ddd0e
DTITLE=The Michael Louis Band - South New York
DYEAR=2009
DGENRE=Blues
TTITLE0=Ain't That Kinda Man
TTITLE1=Shade Tree
TTITLE2=Country Girl
TTITLE3=Saturday Night
TTITLE4=Let It Go
TTITLE5=Cause Of Us
TTITLE6=Reasons And Seasons
TTITLE7=I Fought The Law
TTITLE8=Ramblin' With That Women
TTITLE9=Molly
TTITLE10=Let Me Love You (With All My Heart)
TTITLE11=Super Directional
TTITLE12=Memphis Sound
TTITLE13=Memphis Sound (The Interview)
EXTD=
EXTT0=
EXTT1=
EXTT2=
EXTT3=
EXTT4=
EXTT5=
EXTT6=
EXTT7=
EXTT8=
EXTT9=
EXTT10=
EXTT11=
EXTT12=
EXTT13=
PLAYORDER=
